<?xml version="1.0" encoding="iso-8859-1"?>
<!-- Uploaded to: SVG Repo, www.svgrepo.com, Generator: SVG Repo Mixer Tools -->
<svg fill="#000000" height="800px" width="800px" version="1.1" id="Capa_1" xmlns="http://www.w3.org/2000/svg" xmlns:xlink="http://www.w3.org/1999/xlink" 
	 viewBox="0 0 58 58" xml:space="preserve">
<g>
	<g>
		<path d="M53,46V29.5c0-7.354-4.306-13.932-11-16.903V7c0-0.308-0.142-0.599-0.385-0.788c-0.243-0.19-0.561-0.257-0.857-0.182
			L32.877,8h-7.754l-7.881-1.97c-0.297-0.073-0.613-0.007-0.857,0.182C16.142,6.402,16,6.692,16,7v5.597
			C9.301,15.566,5,22.127,5,29.5V46H0v2h6h2h4.05c0.252,2.243,2.139,4,4.45,4s4.198-1.757,4.45-4H37.05c0.251,2.243,2.139,4,4.45,4
			s4.198-1.757,4.45-4H50h2h6v-2H53z M34,9.781l6-1.5v7.439l-6-1.5V9.781z M32,14h-6v-4h6V14z M18,8.281l6,1.5v4.439l-6,1.5V8.281z
			 M50,46h-4v-6h-2v7.502C44,48.88,42.879,50,41.5,50S39,48.88,39,47.503V40h-2v6H21v-6h-2v7.502C19,48.88,17.879,50,16.5,50
			S14,48.88,14,47.503V40h-2v6H8H7V29.5c0-6.274,3.49-11.894,9-14.696V17c0,0.308,0.142,0.599,0.385,0.788
			C16.563,17.927,16.779,18,17,18c0.081,0,0.162-0.01,0.242-0.03L25.123,16h7.754l7.881,1.97C40.838,17.99,40.919,18,41,18
			c0.221,0,0.438-0.073,0.615-0.212C41.858,17.599,42,17.308,42,17v-2.199c5.507,2.805,9,8.44,9,14.699V46H50z"/>
		<path d="M40.121,32.293c-1.133,1.133-3.109,1.133-4.242,0l-0.707-0.707L33.758,33l0.707,0.707
			c0.944,0.944,2.199,1.464,3.535,1.464s2.591-0.52,3.535-1.464L42.242,33l-1.414-1.414L40.121,32.293z"/>
		<path d="M21.95,32.121c-1.169,1.169-3.072,1.169-4.243,0L17,31.414l-1.414,1.414l0.707,0.707c0.975,0.975,2.255,1.462,3.536,1.462
			c1.28,0,2.56-0.487,3.535-1.462l0.707-0.707l-1.414-1.414L21.95,32.121z"/>
	</g>
</g>
</svg>